<svg xmlns="http://www.w3.org/2000/svg" viewBox="0 0 100 100">
  <defs>
    <linearGradient id="bg" x1="0" y1="0" x2="1" y2="1">
      <stop offset="0" stop-color="#12306e"/>
      <stop offset="1" stop-color="#0b1f4d"/>
    </linearGradient>
  </defs>
  <rect width="100" height="100" rx="22" fill="url(#bg)"/>
  <circle cx="50" cy="50" r="30" fill="none" stroke="#ffb300" stroke-width="2" opacity="0.55"/>
  <path d="M50 20 A30 30 0 0 1 50 80" fill="none" stroke="#ffb300" stroke-width="2" opacity="0.35"/>
  <path fill="#ffb300" d="M74 46.5 L60.5 46.5 L49 30 L43.5 30 L50 46.5 L38 46.5 L33.5 40.5 L29.5 40.5 L32.5 50 L29.5 59.5 L33.5 59.5 L38 53.5 L50 53.5 L43.5 70 L49 70 L60.5 53.5 L74 53.5 C77 53.5 79.5 51.8 79.5 50 C79.5 48.2 77 46.5 74 46.5 Z"/>
</svg>
